<?xml version="1.0" standalone="no"?>
<!DOCTYPE svg PUBLIC "-//W3C//DTD SVG 20010904//EN"
 "http://www.w3.org/TR/2001/REC-SVG-20010904/DTD/svg10.dtd">
<svg version="1.0" xmlns="http://www.w3.org/2000/svg"
 width="1500.000000pt" height="1500.000000pt" viewBox="0 0 1500.000000 1500.000000"
 preserveAspectRatio="xMidYMid meet">

<g transform="translate(0.000000,1500.000000) scale(0.100000,-0.100000)"
fill="#000000" stroke="none">
<path d="M0 7500 l0 -7500 7500 0 7500 0 0 7500 0 7500 -7500 0 -7500 0 0
-7500z m6725 6270 c516 -22 866 -73 1155 -170 377 -127 636 -386 781 -782 31
-85 99 -349 121 -468 22 -128 17 -753 -10 -1110 -13 -162 -30 -341 -38 -398
-18 -122 -66 -267 -136 -406 -66 -132 -118 -205 -213 -294 -42 -41 -75 -75
-73 -76 1 -1 24 -10 50 -20 120 -44 284 -186 378 -325 90 -134 153 -294 185
-471 17 -94 38 -1329 51 -3040 7 -949 2 -1089 -46 -1403 -25 -161 -42 -226
-92 -355 -144 -370 -395 -618 -773 -765 -467 -181 -983 -222 -2432 -193 l-443
9 0 5138 0 5139 653 0 c358 0 756 -5 882 -10z m2244 -10100 c12 -96 38 -319
60 -495 22 -176 49 -406 62 -511 l23 -192 75 -6 c310 -28 603 -161 796 -362
94 -98 165 -233 165 -315 0 -33 30 -26 -430 -104 -179 -30 -415 -71 -525 -90
-828 -143 -1207 -206 -1212 -202 -5 5 -40 291 -98 797 -14 129 -48 421 -74
648 l-47 412 41 10 c361 87 622 204 835 374 99 78 201 178 253 245 l42 54 7
-44 c4 -24 16 -123 27 -219z m-2886 -517 l357 -6 -5 -31 c-6 -32 -33 -220 -86
-576 -16 -113 -35 -244 -43 -292 l-13 -87 46 -17 c337 -126 646 -448 707 -734
14 -67 14 -173 1 -187 -6 -5 -2186 213 -2193 220 -2 2 10 77 26 168 38 209
134 768 205 1199 30 184 58 341 60 349 5 12 51 13 293 8 158 -4 448 -10 645
-14z"/>
<path d="M6597 12483 c-4 -3 -7 -430 -7 -949 0 -850 2 -942 16 -948 9 -3 89
-6 178 -6 239 0 345 31 451 131 63 60 101 132 115 221 24 155 41 411 47 693 5
280 4 307 -17 414 -29 155 -61 230 -126 301 -61 65 -111 90 -225 114 -131 27
-415 46 -432 29z"/>
<path d="M6588 9625 c-5 -5 -8 -1093 -8 -2418 l0 -2410 133 7 c407 21 546 63
681 206 107 113 155 244 177 478 14 150 6 2334 -11 2957 -15 561 -23 659 -61
750 -95 229 -274 368 -529 411 -99 17 -372 30 -382 19z"/>
</g>
</svg>
